<svg width="150" height="161" viewBox="0 0 150 161" fill="none" xmlns="http://www.w3.org/2000/svg">
<g filter="url(#filter0_d_2014_1879)">
<path d="M60.6885 24.1475C67.6085 27.0836 75.245 27.88 82.6192 26.4346C89.9934 24.9891 96.7692 21.3678 102.078 16.0348C103.299 14.8081 104.435 13.4994 105.479 12.1176C103.527 9.79361 101.319 7.69836 98.8981 5.87176C95.8022 10.285 91.5356 13.7399 86.5819 15.8449C80.4636 18.4318 73.6419 18.818 67.2723 16.9379C60.9027 15.0579 55.3768 11.0273 51.6306 5.52881C49.183 7.31805 46.9449 9.37898 44.9587 11.6724C46.0923 13.219 47.3406 14.6776 48.6931 16.0357C52.131 19.4923 56.2047 22.2471 60.6885 24.1475Z" fill="#55FF73"/>
</g>
<g filter="url(#filter1_d_2014_1879)">
<path d="M100.577 27.8046L100.334 27.918C96.7712 29.5857 93.5703 31.9394 90.9127 34.8451C85.116 40.7732 81.4157 48.4432 80.3782 56.6812C79.3407 64.9192 81.0232 73.2713 85.1682 80.459C88.117 79.6781 90.9658 78.5579 93.6581 77.1208C90.1091 71.5696 88.5504 64.9718 89.2387 58.4135C89.927 51.8553 92.8212 45.7276 97.4449 41.0394L97.6085 40.8983L97.7923 40.6494C99.637 38.7314 101.818 37.1704 104.226 36.0445C107.447 34.705 111.03 34.5245 114.369 35.5338C113.845 32.2274 112.907 29.0008 111.574 25.9313C111.056 25.8981 110.536 25.875 110.012 25.875C106.769 25.8695 103.559 26.526 100.577 27.8046Z" fill="#55FF73"/>
</g>
<g filter="url(#filter2_d_2014_1879)">
<path d="M40.7456 34.8893C42.7315 34.8853 44.6984 35.278 46.5314 36.0445C48.9391 37.1701 51.1199 38.7301 52.9652 40.6466L53.3117 41.0393C57.9747 45.7683 60.8775 51.9596 61.5348 58.578C62.1922 65.1964 60.5641 71.8405 56.9229 77.3991C59.6482 78.8005 62.5266 79.8796 65.5001 80.6147C69.6852 73.4173 71.3986 65.0406 70.3769 56.7717C69.3552 48.5028 65.655 40.7991 59.8448 34.8442C57.1873 31.9384 53.9863 29.5847 50.4239 27.917L50.1794 27.8036C47.1976 26.525 43.9875 25.8685 40.7446 25.8741C39.9698 25.8741 39.2014 25.9137 38.4386 25.9856C37.0847 29.1171 36.14 32.411 35.6279 35.7854C37.2687 35.1898 39.0007 34.8866 40.7456 34.8893Z" fill="#55FF73"/>
</g>
<g filter="url(#filter3_d_2014_1879)">
<path d="M21.7878 142.124H24.8209L25.0893 143.58H23.3917V145.435H24.6785V146.785H23.3917V148.489H25.025L24.7566 149.945H21.7897L21.7878 142.124Z" fill="#55FF73"/>
</g>
<g filter="url(#filter4_d_2014_1879)">
<path d="M26.7087 142.124H28.3108V148.485H29.8806L29.6122 149.941H26.7097L26.7087 142.124Z" fill="#55FF73"/>
</g>
<g filter="url(#filter5_d_2014_1879)">
<path d="M36.9127 142.124C37.04 142.114 37.1678 142.132 37.2874 142.177C37.407 142.222 37.5156 142.292 37.6057 142.382C37.7667 142.575 37.8491 142.821 37.8364 143.072V146.813C37.8379 146.953 37.8215 147.093 37.7877 147.229C37.7572 147.352 37.6961 147.465 37.6103 147.558C37.5145 147.657 37.3968 147.733 37.2666 147.778C37.0936 147.837 36.9115 147.865 36.7289 147.859H35.3962V149.94H33.8484V142.123L36.9127 142.124ZM35.3971 143.493V146.566H36.171C36.2353 146.566 36.2776 146.554 36.2951 146.528C36.3165 146.491 36.3261 146.448 36.3226 146.405V143.644C36.3226 143.543 36.2758 143.493 36.1829 143.493H35.3971Z" fill="#55FF73"/>
</g>
<g filter="url(#filter6_d_2014_1879)">
<path d="M43.5653 148.83C43.5661 148.974 43.5482 149.117 43.512 149.256C43.4778 149.385 43.415 149.505 43.3282 149.606C43.2339 149.713 43.1162 149.796 42.9844 149.849C42.8131 149.915 42.6303 149.946 42.4467 149.941H40.6406C40.4571 149.946 40.2743 149.915 40.103 149.849C39.9713 149.796 39.8536 149.713 39.7592 149.606C39.6724 149.505 39.6095 149.385 39.5754 149.256C39.5389 149.117 39.521 148.974 39.5221 148.83V143.137C39.5075 142.997 39.525 142.855 39.5734 142.722C39.6218 142.589 39.6998 142.47 39.8014 142.372C39.903 142.274 40.0256 142.201 40.1597 142.158C40.2938 142.115 40.436 142.103 40.5754 142.123H42.5056C42.645 142.103 42.7873 142.114 42.9215 142.157C43.0558 142.2 43.1784 142.274 43.2802 142.371C43.3819 142.469 43.46 142.589 43.5084 142.722C43.5569 142.855 43.5745 142.997 43.5598 143.137L43.5653 148.83ZM41.2326 143.493C41.1407 143.493 41.0929 143.543 41.0929 143.644V148.41C41.0892 148.453 41.0985 148.496 41.1195 148.533C41.137 148.559 41.1783 148.571 41.2427 148.571H41.8346C41.8989 148.571 41.9403 148.559 41.9587 148.533C41.9792 148.495 41.9884 148.453 41.9853 148.41V143.644C41.9853 143.543 41.9384 143.493 41.8456 143.493H41.2326Z" fill="#55FF73"/>
</g>
<g filter="url(#filter7_d_2014_1879)">
<path d="M49.2649 148.734C49.2963 149.066 49.2 149.398 48.9956 149.661C48.8638 149.767 48.7124 149.846 48.5501 149.894C48.3878 149.941 48.2178 149.956 48.0498 149.938H45.2878V142.121H48.3402C48.4675 142.111 48.5953 142.129 48.715 142.174C48.8346 142.218 48.9432 142.288 49.0332 142.379C49.1945 142.571 49.2773 142.818 49.2649 143.068V148.734ZM46.8356 143.493V148.571H47.5709C47.6352 148.571 47.6766 148.559 47.695 148.534C47.7158 148.496 47.7251 148.453 47.7216 148.41V143.645C47.7216 143.543 47.6748 143.493 47.582 143.493H46.8356Z" fill="#55FF73"/>
</g>
<g filter="url(#filter8_d_2014_1879)">
<path d="M50.989 142.124H54.0221L54.2905 143.58H52.592V145.435H53.8787V146.785H52.592V148.489H54.2261L53.9578 149.945H50.9918L50.989 142.124Z" fill="#55FF73"/>
</g>
<g filter="url(#filter9_d_2014_1879)">
<path d="M59.911 146.761C59.9102 146.935 59.8473 147.103 59.7336 147.235C59.6685 147.309 59.5877 147.366 59.4973 147.403C59.4068 147.441 59.3091 147.457 59.2115 147.45L60.0286 149.939H58.4155L57.6637 147.45H57.4588V149.939H55.8962V142.123H58.8521C58.9915 142.102 59.1337 142.114 59.2678 142.157C59.402 142.2 59.5245 142.273 59.6261 142.371C59.7277 142.469 59.8057 142.589 59.8541 142.721C59.9025 142.854 59.9201 142.996 59.9054 143.137L59.911 146.761ZM57.4597 143.494V146.19H58.2225C58.323 146.19 58.3733 146.136 58.3733 146.028V143.651C58.3733 143.544 58.323 143.49 58.2225 143.49L57.4597 143.494Z" fill="#55FF73"/>
</g>
<g filter="url(#filter10_d_2014_1879)">
<path d="M68.0442 148.734C68.0757 149.066 67.9797 149.397 67.7758 149.661C67.644 149.767 67.4927 149.846 67.3304 149.894C67.1681 149.941 66.9981 149.956 66.8301 149.938H64.0681V142.121H67.1205C67.2478 142.111 67.3756 142.129 67.4952 142.174C67.6149 142.218 67.7235 142.288 67.8135 142.379C67.9745 142.571 68.0569 142.818 68.0442 143.068V148.734ZM65.615 143.493V148.571H66.3503C66.4146 148.571 66.456 148.559 66.4734 148.533C66.4943 148.496 66.5035 148.453 66.5001 148.41V143.645C66.5001 143.543 66.4532 143.493 66.3604 143.493H65.615Z" fill="#55FF73"/>
</g>
<g filter="url(#filter11_d_2014_1879)">
<path d="M69.7693 142.124H72.8024L73.0708 143.58H71.3731V145.435H72.6599V146.785H71.3731V148.489H73.0064L72.738 149.945H69.7711L69.7693 142.124Z" fill="#55FF73"/>
</g>
<g filter="url(#filter12_d_2014_1879)">
<path d="M74.6812 142.124H76.2832V148.485H77.8521L77.5837 149.941H74.6812V142.124Z" fill="#55FF73"/>
</g>
<g filter="url(#filter13_d_2014_1879)">
<path d="M81.8218 142.124H84.8549L85.1233 143.58H83.4247V145.435H84.7115V146.785H83.4247V148.489H85.0589L84.7905 149.945H81.8236L81.8218 142.124Z" fill="#55FF73"/>
</g>
<g filter="url(#filter14_d_2014_1879)">
<path d="M86.7336 142.124H88.2171L89.0131 145.258V142.124H90.6142V149.941H89.0131L88.1739 146.675V149.941H86.7336V142.124Z" fill="#55FF73"/>
</g>
<g filter="url(#filter15_d_2014_1879)">
<path d="M93.5535 149.941C93.3855 149.959 93.2155 149.944 93.0532 149.897C92.8909 149.849 92.7395 149.77 92.6077 149.664C92.4039 149.401 92.3079 149.069 92.3394 148.737V143.087C92.3308 142.957 92.3498 142.826 92.3951 142.703C92.4404 142.581 92.511 142.469 92.6022 142.376C92.7783 142.211 93.012 142.122 93.253 142.128H95.3063L95.5747 143.583H94.0811C93.9874 143.583 93.9408 143.634 93.9414 143.735V148.338C93.9414 148.438 93.988 148.489 94.0811 148.489H95.5747L95.2989 149.945L93.5535 149.941Z" fill="#55FF73"/>
</g>
<g filter="url(#filter16_d_2014_1879)">
<path d="M98.4046 149.941C98.2366 149.96 98.0665 149.945 97.9043 149.897C97.742 149.85 97.5906 149.771 97.4588 149.664C97.2549 149.401 97.159 149.069 97.1904 148.737V142.128H98.7805V148.402C98.7776 148.447 98.7871 148.492 98.8081 148.532C98.8256 148.561 98.8669 148.575 98.9313 148.575H99.4827C99.547 148.575 99.5884 148.56 99.6068 148.532C99.6271 148.492 99.6363 148.447 99.6334 148.402V142.128H101.224V148.737C101.256 149.069 101.16 149.401 100.956 149.664C100.824 149.771 100.673 149.85 100.511 149.897C100.348 149.945 100.178 149.96 100.01 149.941H98.4046Z" fill="#55FF73"/>
</g>
<g filter="url(#filter17_d_2014_1879)">
<path d="M102.936 142.124H105.969L106.237 143.58H104.54V145.435H105.826V146.785H104.54V148.489H106.174L105.905 149.945H102.939L102.936 142.124Z" fill="#55FF73"/>
</g>
<g filter="url(#filter18_d_2014_1879)">
<path d="M107.848 142.124H109.33L110.126 145.258V142.124H111.728V149.941H110.126L109.287 146.675V149.941H107.847L107.848 142.124Z" fill="#55FF73"/>
</g>
<g filter="url(#filter19_d_2014_1879)">
<path d="M116.523 142.124L116.909 143.58H115.866V149.941H114.276V143.58H113.233L113.642 142.124H116.523Z" fill="#55FF73"/>
</g>
<g filter="url(#filter20_d_2014_1879)">
<path d="M122.427 146.76C122.427 146.935 122.364 147.103 122.25 147.235C122.185 147.309 122.105 147.366 122.014 147.403C121.924 147.441 121.826 147.456 121.729 147.45L122.546 149.939H120.934L120.181 147.45H119.977V149.939H118.415V142.122H121.37C121.51 142.102 121.652 142.113 121.786 142.156C121.921 142.199 122.043 142.273 122.145 142.37C122.247 142.468 122.325 142.588 122.373 142.721C122.422 142.854 122.439 142.996 122.425 143.136L122.427 146.76ZM119.976 143.494V146.19H120.739C120.839 146.19 120.89 146.136 120.89 146.027V143.651C120.89 143.543 120.839 143.489 120.739 143.489L119.976 143.494Z" fill="#55FF73"/>
</g>
<g filter="url(#filter21_d_2014_1879)">
<path d="M128.204 148.83C128.205 148.974 128.187 149.117 128.151 149.256C128.117 149.385 128.054 149.505 127.967 149.606C127.873 149.713 127.755 149.796 127.623 149.849C127.452 149.915 127.269 149.946 127.086 149.941H125.28C125.096 149.946 124.913 149.915 124.742 149.849C124.61 149.796 124.492 149.713 124.397 149.606C124.311 149.505 124.248 149.385 124.213 149.256C124.177 149.117 124.159 148.974 124.16 148.83V143.137C124.145 142.997 124.163 142.855 124.211 142.722C124.259 142.589 124.337 142.469 124.439 142.371C124.541 142.274 124.663 142.2 124.798 142.157C124.932 142.114 125.074 142.103 125.213 142.123H127.144C127.283 142.103 127.425 142.114 127.56 142.157C127.694 142.2 127.816 142.274 127.918 142.371C128.02 142.469 128.098 142.589 128.146 142.722C128.195 142.855 128.212 142.997 128.198 143.137L128.204 148.83ZM125.872 143.493C125.78 143.493 125.732 143.543 125.732 143.644V148.41C125.728 148.453 125.738 148.496 125.759 148.533C125.777 148.559 125.818 148.571 125.883 148.571H126.474C126.539 148.571 126.58 148.559 126.599 148.533C126.619 148.495 126.628 148.453 126.625 148.41V143.644C126.625 143.543 126.578 143.493 126.485 143.493H125.872Z" fill="#55FF73"/>
</g>
<g filter="url(#filter22_d_2014_1879)">
<path d="M8.27583 102.288H20.0736C27.0341 102.288 31.5166 105.877 31.5166 111.991V112.07C31.5166 118.578 26.5231 122.01 19.6802 122.01H15.9045V129.899H11.4118C10.5799 129.899 9.78198 129.568 9.19368 128.977C8.60539 128.387 8.2749 127.587 8.2749 126.753L8.27583 102.288ZM19.5231 116.014C22.2372 116.014 23.888 114.594 23.888 112.425V112.346C23.888 109.98 22.2335 108.717 19.4835 108.717H15.9054V116.014H19.5231Z" fill="white"/>
</g>
<g filter="url(#filter23_d_2014_1879)">
<path d="M36.978 102.288H44.6462V129.899H36.978V102.288Z" fill="white"/>
</g>
<g filter="url(#filter24_d_2014_1879)">
<path d="M53.7952 102.288H61.4238V123.194H73.3963V129.899H53.7952V102.288Z" fill="white"/>
</g>
<g filter="url(#filter25_d_2014_1879)">
<path d="M83.3181 102.288H87.4257V113.49L96.9036 102.288H105.948L95.5286 114.159L106.303 129.897H97.1407L90.2189 119.642L87.4275 122.758V129.897H79.7988V105.821C79.7988 104.884 80.1695 103.986 80.8294 103.324C81.4894 102.661 82.3845 102.289 83.3181 102.288Z" fill="white"/>
</g>
<g filter="url(#filter26_d_2014_1879)">
<path d="M122.657 102.089H130.01L141.729 129.897H133.549L131.543 124.967H120.926L118.96 129.897H110.938L122.657 102.089ZM129.343 119.01L126.276 111.161L123.171 119.01H129.343Z" fill="white"/>
</g>
<defs>
<filter id="filter0_d_2014_1879" x="40.0114" y="3.05513" width="70.415" height="31.5026" filterUnits="userSpaceOnUse" color-interpolation-filters="sRGB">
<feFlood flood-opacity="0" result="BackgroundImageFix"/>
<feColorMatrix in="SourceAlpha" type="matrix" values="0 0 0 0 0 0 0 0 0 0 0 0 0 0 0 0 0 0 127 0" result="hardAlpha"/>
<feOffset dy="2.47367"/>
<feGaussianBlur stdDeviation="2.47367"/>
<feColorMatrix type="matrix" values="0 0 0 0 0 0 0 0 0 0 0 0 0 0 0 0 0 0 0.161 0"/>
<feBlend mode="normal" in2="BackgroundImageFix" result="effect1_dropShadow_2014_1879"/>
<feBlend mode="normal" in="SourceGraphic" in2="effect1_dropShadow_2014_1879" result="shape"/>
</filter>
<filter id="filter1_d_2014_1879" x="75.1322" y="23.4013" width="44.1838" height="64.4787" filterUnits="userSpaceOnUse" color-interpolation-filters="sRGB">
<feFlood flood-opacity="0" result="BackgroundImageFix"/>
<feColorMatrix in="SourceAlpha" type="matrix" values="0 0 0 0 0 0 0 0 0 0 0 0 0 0 0 0 0 0 127 0" result="hardAlpha"/>
<feOffset dy="2.47367"/>
<feGaussianBlur stdDeviation="2.47367"/>
<feColorMatrix type="matrix" values="0 0 0 0 0 0 0 0 0 0 0 0 0 0 0 0 0 0 0.161 0"/>
<feBlend mode="normal" in2="BackgroundImageFix" result="effect1_dropShadow_2014_1879"/>
<feBlend mode="normal" in="SourceGraphic" in2="effect1_dropShadow_2014_1879" result="shape"/>
</filter>
<filter id="filter2_d_2014_1879" x="30.6806" y="23.4003" width="44.9316" height="64.6354" filterUnits="userSpaceOnUse" color-interpolation-filters="sRGB">
<feFlood flood-opacity="0" result="BackgroundImageFix"/>
<feColorMatrix in="SourceAlpha" type="matrix" values="0 0 0 0 0 0 0 0 0 0 0 0 0 0 0 0 0 0 127 0" result="hardAlpha"/>
<feOffset dy="2.47367"/>
<feGaussianBlur stdDeviation="2.47367"/>
<feColorMatrix type="matrix" values="0 0 0 0 0 0 0 0 0 0 0 0 0 0 0 0 0 0 0.161 0"/>
<feBlend mode="normal" in2="BackgroundImageFix" result="effect1_dropShadow_2014_1879"/>
<feBlend mode="normal" in="SourceGraphic" in2="effect1_dropShadow_2014_1879" result="shape"/>
</filter>
<filter id="filter3_d_2014_1879" x="16.8405" y="139.65" width="13.1962" height="17.715" filterUnits="userSpaceOnUse" color-interpolation-filters="sRGB">
<feFlood flood-opacity="0" result="BackgroundImageFix"/>
<feColorMatrix in="SourceAlpha" type="matrix" values="0 0 0 0 0 0 0 0 0 0 0 0 0 0 0 0 0 0 127 0" result="hardAlpha"/>
<feOffset dy="2.47367"/>
<feGaussianBlur stdDeviation="2.47367"/>
<feColorMatrix type="matrix" values="0 0 0 0 0 0 0 0 0 0 0 0 0 0 0 0 0 0 0.161 0"/>
<feBlend mode="normal" in2="BackgroundImageFix" result="effect1_dropShadow_2014_1879"/>
<feBlend mode="normal" in="SourceGraphic" in2="effect1_dropShadow_2014_1879" result="shape"/>
</filter>
<filter id="filter4_d_2014_1879" x="21.7614" y="139.65" width="13.0666" height="17.7116" filterUnits="userSpaceOnUse" color-interpolation-filters="sRGB">
<feFlood flood-opacity="0" result="BackgroundImageFix"/>
<feColorMatrix in="SourceAlpha" type="matrix" values="0 0 0 0 0 0 0 0 0 0 0 0 0 0 0 0 0 0 127 0" result="hardAlpha"/>
<feOffset dy="2.47367"/>
<feGaussianBlur stdDeviation="2.47367"/>
<feColorMatrix type="matrix" values="0 0 0 0 0 0 0 0 0 0 0 0 0 0 0 0 0 0 0.161 0"/>
<feBlend mode="normal" in2="BackgroundImageFix" result="effect1_dropShadow_2014_1879"/>
<feBlend mode="normal" in="SourceGraphic" in2="effect1_dropShadow_2014_1879" result="shape"/>
</filter>
<filter id="filter5_d_2014_1879" x="28.901" y="139.648" width="13.884" height="17.7131" filterUnits="userSpaceOnUse" color-interpolation-filters="sRGB">
<feFlood flood-opacity="0" result="BackgroundImageFix"/>
<feColorMatrix in="SourceAlpha" type="matrix" values="0 0 0 0 0 0 0 0 0 0 0 0 0 0 0 0 0 0 127 0" result="hardAlpha"/>
<feOffset dy="2.47367"/>
<feGaussianBlur stdDeviation="2.47367"/>
<feColorMatrix type="matrix" values="0 0 0 0 0 0 0 0 0 0 0 0 0 0 0 0 0 0 0.161 0"/>
<feBlend mode="normal" in2="BackgroundImageFix" result="effect1_dropShadow_2014_1879"/>
<feBlend mode="normal" in="SourceGraphic" in2="effect1_dropShadow_2014_1879" result="shape"/>
</filter>
<filter id="filter6_d_2014_1879" x="34.5697" y="139.64" width="13.943" height="17.7228" filterUnits="userSpaceOnUse" color-interpolation-filters="sRGB">
<feFlood flood-opacity="0" result="BackgroundImageFix"/>
<feColorMatrix in="SourceAlpha" type="matrix" values="0 0 0 0 0 0 0 0 0 0 0 0 0 0 0 0 0 0 127 0" result="hardAlpha"/>
<feOffset dy="2.47367"/>
<feGaussianBlur stdDeviation="2.47367"/>
<feColorMatrix type="matrix" values="0 0 0 0 0 0 0 0 0 0 0 0 0 0 0 0 0 0 0.161 0"/>
<feBlend mode="normal" in2="BackgroundImageFix" result="effect1_dropShadow_2014_1879"/>
<feBlend mode="normal" in="SourceGraphic" in2="effect1_dropShadow_2014_1879" result="shape"/>
</filter>
<filter id="filter7_d_2014_1879" x="40.3405" y="139.644" width="13.8776" height="17.7218" filterUnits="userSpaceOnUse" color-interpolation-filters="sRGB">
<feFlood flood-opacity="0" result="BackgroundImageFix"/>
<feColorMatrix in="SourceAlpha" type="matrix" values="0 0 0 0 0 0 0 0 0 0 0 0 0 0 0 0 0 0 127 0" result="hardAlpha"/>
<feOffset dy="2.47367"/>
<feGaussianBlur stdDeviation="2.47367"/>
<feColorMatrix type="matrix" values="0 0 0 0 0 0 0 0 0 0 0 0 0 0 0 0 0 0 0.161 0"/>
<feBlend mode="normal" in2="BackgroundImageFix" result="effect1_dropShadow_2014_1879"/>
<feBlend mode="normal" in="SourceGraphic" in2="effect1_dropShadow_2014_1879" result="shape"/>
</filter>
<filter id="filter8_d_2014_1879" x="46.0417" y="139.65" width="13.1962" height="17.715" filterUnits="userSpaceOnUse" color-interpolation-filters="sRGB">
<feFlood flood-opacity="0" result="BackgroundImageFix"/>
<feColorMatrix in="SourceAlpha" type="matrix" values="0 0 0 0 0 0 0 0 0 0 0 0 0 0 0 0 0 0 127 0" result="hardAlpha"/>
<feOffset dy="2.47367"/>
<feGaussianBlur stdDeviation="2.47367"/>
<feColorMatrix type="matrix" values="0 0 0 0 0 0 0 0 0 0 0 0 0 0 0 0 0 0 0.161 0"/>
<feBlend mode="normal" in2="BackgroundImageFix" result="effect1_dropShadow_2014_1879"/>
<feBlend mode="normal" in="SourceGraphic" in2="effect1_dropShadow_2014_1879" result="shape"/>
</filter>
<filter id="filter9_d_2014_1879" x="50.9489" y="139.639" width="14.027" height="17.7214" filterUnits="userSpaceOnUse" color-interpolation-filters="sRGB">
<feFlood flood-opacity="0" result="BackgroundImageFix"/>
<feColorMatrix in="SourceAlpha" type="matrix" values="0 0 0 0 0 0 0 0 0 0 0 0 0 0 0 0 0 0 127 0" result="hardAlpha"/>
<feOffset dy="2.47367"/>
<feGaussianBlur stdDeviation="2.47367"/>
<feColorMatrix type="matrix" values="0 0 0 0 0 0 0 0 0 0 0 0 0 0 0 0 0 0 0.161 0"/>
<feBlend mode="normal" in2="BackgroundImageFix" result="effect1_dropShadow_2014_1879"/>
<feBlend mode="normal" in="SourceGraphic" in2="effect1_dropShadow_2014_1879" result="shape"/>
</filter>
<filter id="filter10_d_2014_1879" x="59.1208" y="139.644" width="13.8766" height="17.7218" filterUnits="userSpaceOnUse" color-interpolation-filters="sRGB">
<feFlood flood-opacity="0" result="BackgroundImageFix"/>
<feColorMatrix in="SourceAlpha" type="matrix" values="0 0 0 0 0 0 0 0 0 0 0 0 0 0 0 0 0 0 127 0" result="hardAlpha"/>
<feOffset dy="2.47367"/>
<feGaussianBlur stdDeviation="2.47367"/>
<feColorMatrix type="matrix" values="0 0 0 0 0 0 0 0 0 0 0 0 0 0 0 0 0 0 0.161 0"/>
<feBlend mode="normal" in2="BackgroundImageFix" result="effect1_dropShadow_2014_1879"/>
<feBlend mode="normal" in="SourceGraphic" in2="effect1_dropShadow_2014_1879" result="shape"/>
</filter>
<filter id="filter11_d_2014_1879" x="64.8219" y="139.65" width="13.1962" height="17.715" filterUnits="userSpaceOnUse" color-interpolation-filters="sRGB">
<feFlood flood-opacity="0" result="BackgroundImageFix"/>
<feColorMatrix in="SourceAlpha" type="matrix" values="0 0 0 0 0 0 0 0 0 0 0 0 0 0 0 0 0 0 127 0" result="hardAlpha"/>
<feOffset dy="2.47367"/>
<feGaussianBlur stdDeviation="2.47367"/>
<feColorMatrix type="matrix" values="0 0 0 0 0 0 0 0 0 0 0 0 0 0 0 0 0 0 0.161 0"/>
<feBlend mode="normal" in2="BackgroundImageFix" result="effect1_dropShadow_2014_1879"/>
<feBlend mode="normal" in="SourceGraphic" in2="effect1_dropShadow_2014_1879" result="shape"/>
</filter>
<filter id="filter12_d_2014_1879" x="69.7338" y="139.65" width="13.0656" height="17.7116" filterUnits="userSpaceOnUse" color-interpolation-filters="sRGB">
<feFlood flood-opacity="0" result="BackgroundImageFix"/>
<feColorMatrix in="SourceAlpha" type="matrix" values="0 0 0 0 0 0 0 0 0 0 0 0 0 0 0 0 0 0 127 0" result="hardAlpha"/>
<feOffset dy="2.47367"/>
<feGaussianBlur stdDeviation="2.47367"/>
<feColorMatrix type="matrix" values="0 0 0 0 0 0 0 0 0 0 0 0 0 0 0 0 0 0 0.161 0"/>
<feBlend mode="normal" in2="BackgroundImageFix" result="effect1_dropShadow_2014_1879"/>
<feBlend mode="normal" in="SourceGraphic" in2="effect1_dropShadow_2014_1879" result="shape"/>
</filter>
<filter id="filter13_d_2014_1879" x="76.8744" y="139.65" width="13.1962" height="17.715" filterUnits="userSpaceOnUse" color-interpolation-filters="sRGB">
<feFlood flood-opacity="0" result="BackgroundImageFix"/>
<feColorMatrix in="SourceAlpha" type="matrix" values="0 0 0 0 0 0 0 0 0 0 0 0 0 0 0 0 0 0 127 0" result="hardAlpha"/>
<feOffset dy="2.47367"/>
<feGaussianBlur stdDeviation="2.47367"/>
<feColorMatrix type="matrix" values="0 0 0 0 0 0 0 0 0 0 0 0 0 0 0 0 0 0 0.161 0"/>
<feBlend mode="normal" in2="BackgroundImageFix" result="effect1_dropShadow_2014_1879"/>
<feBlend mode="normal" in="SourceGraphic" in2="effect1_dropShadow_2014_1879" result="shape"/>
</filter>
<filter id="filter14_d_2014_1879" x="81.7863" y="139.65" width="13.7753" height="17.7116" filterUnits="userSpaceOnUse" color-interpolation-filters="sRGB">
<feFlood flood-opacity="0" result="BackgroundImageFix"/>
<feColorMatrix in="SourceAlpha" type="matrix" values="0 0 0 0 0 0 0 0 0 0 0 0 0 0 0 0 0 0 127 0" result="hardAlpha"/>
<feOffset dy="2.47367"/>
<feGaussianBlur stdDeviation="2.47367"/>
<feColorMatrix type="matrix" values="0 0 0 0 0 0 0 0 0 0 0 0 0 0 0 0 0 0 0.161 0"/>
<feBlend mode="normal" in2="BackgroundImageFix" result="effect1_dropShadow_2014_1879"/>
<feBlend mode="normal" in="SourceGraphic" in2="effect1_dropShadow_2014_1879" result="shape"/>
</filter>
<filter id="filter15_d_2014_1879" x="87.3861" y="139.654" width="13.1359" height="17.716" filterUnits="userSpaceOnUse" color-interpolation-filters="sRGB">
<feFlood flood-opacity="0" result="BackgroundImageFix"/>
<feColorMatrix in="SourceAlpha" type="matrix" values="0 0 0 0 0 0 0 0 0 0 0 0 0 0 0 0 0 0 127 0" result="hardAlpha"/>
<feOffset dy="2.47367"/>
<feGaussianBlur stdDeviation="2.47367"/>
<feColorMatrix type="matrix" values="0 0 0 0 0 0 0 0 0 0 0 0 0 0 0 0 0 0 0.161 0"/>
<feBlend mode="normal" in2="BackgroundImageFix" result="effect1_dropShadow_2014_1879"/>
<feBlend mode="normal" in="SourceGraphic" in2="effect1_dropShadow_2014_1879" result="shape"/>
</filter>
<filter id="filter16_d_2014_1879" x="92.2372" y="139.654" width="13.9404" height="17.7155" filterUnits="userSpaceOnUse" color-interpolation-filters="sRGB">
<feFlood flood-opacity="0" result="BackgroundImageFix"/>
<feColorMatrix in="SourceAlpha" type="matrix" values="0 0 0 0 0 0 0 0 0 0 0 0 0 0 0 0 0 0 127 0" result="hardAlpha"/>
<feOffset dy="2.47367"/>
<feGaussianBlur stdDeviation="2.47367"/>
<feColorMatrix type="matrix" values="0 0 0 0 0 0 0 0 0 0 0 0 0 0 0 0 0 0 0.161 0"/>
<feBlend mode="normal" in2="BackgroundImageFix" result="effect1_dropShadow_2014_1879"/>
<feBlend mode="normal" in="SourceGraphic" in2="effect1_dropShadow_2014_1879" result="shape"/>
</filter>
<filter id="filter17_d_2014_1879" x="97.9884" y="139.65" width="13.1962" height="17.715" filterUnits="userSpaceOnUse" color-interpolation-filters="sRGB">
<feFlood flood-opacity="0" result="BackgroundImageFix"/>
<feColorMatrix in="SourceAlpha" type="matrix" values="0 0 0 0 0 0 0 0 0 0 0 0 0 0 0 0 0 0 127 0" result="hardAlpha"/>
<feOffset dy="2.47367"/>
<feGaussianBlur stdDeviation="2.47367"/>
<feColorMatrix type="matrix" values="0 0 0 0 0 0 0 0 0 0 0 0 0 0 0 0 0 0 0.161 0"/>
<feBlend mode="normal" in2="BackgroundImageFix" result="effect1_dropShadow_2014_1879"/>
<feBlend mode="normal" in="SourceGraphic" in2="effect1_dropShadow_2014_1879" result="shape"/>
</filter>
<filter id="filter18_d_2014_1879" x="102.899" y="139.65" width="13.776" height="17.7116" filterUnits="userSpaceOnUse" color-interpolation-filters="sRGB">
<feFlood flood-opacity="0" result="BackgroundImageFix"/>
<feColorMatrix in="SourceAlpha" type="matrix" values="0 0 0 0 0 0 0 0 0 0 0 0 0 0 0 0 0 0 127 0" result="hardAlpha"/>
<feOffset dy="2.47367"/>
<feGaussianBlur stdDeviation="2.47367"/>
<feColorMatrix type="matrix" values="0 0 0 0 0 0 0 0 0 0 0 0 0 0 0 0 0 0 0.161 0"/>
<feBlend mode="normal" in2="BackgroundImageFix" result="effect1_dropShadow_2014_1879"/>
<feBlend mode="normal" in="SourceGraphic" in2="effect1_dropShadow_2014_1879" result="shape"/>
</filter>
<filter id="filter19_d_2014_1879" x="108.285" y="139.65" width="13.5712" height="17.7116" filterUnits="userSpaceOnUse" color-interpolation-filters="sRGB">
<feFlood flood-opacity="0" result="BackgroundImageFix"/>
<feColorMatrix in="SourceAlpha" type="matrix" values="0 0 0 0 0 0 0 0 0 0 0 0 0 0 0 0 0 0 127 0" result="hardAlpha"/>
<feOffset dy="2.47367"/>
<feGaussianBlur stdDeviation="2.47367"/>
<feColorMatrix type="matrix" values="0 0 0 0 0 0 0 0 0 0 0 0 0 0 0 0 0 0 0.161 0"/>
<feBlend mode="normal" in2="BackgroundImageFix" result="effect1_dropShadow_2014_1879"/>
<feBlend mode="normal" in="SourceGraphic" in2="effect1_dropShadow_2014_1879" result="shape"/>
</filter>
<filter id="filter20_d_2014_1879" x="113.467" y="139.639" width="14.026" height="17.7214" filterUnits="userSpaceOnUse" color-interpolation-filters="sRGB">
<feFlood flood-opacity="0" result="BackgroundImageFix"/>
<feColorMatrix in="SourceAlpha" type="matrix" values="0 0 0 0 0 0 0 0 0 0 0 0 0 0 0 0 0 0 127 0" result="hardAlpha"/>
<feOffset dy="2.47367"/>
<feGaussianBlur stdDeviation="2.47367"/>
<feColorMatrix type="matrix" values="0 0 0 0 0 0 0 0 0 0 0 0 0 0 0 0 0 0 0.161 0"/>
<feBlend mode="normal" in2="BackgroundImageFix" result="effect1_dropShadow_2014_1879"/>
<feBlend mode="normal" in="SourceGraphic" in2="effect1_dropShadow_2014_1879" result="shape"/>
</filter>
<filter id="filter21_d_2014_1879" x="119.208" y="139.64" width="13.944" height="17.7228" filterUnits="userSpaceOnUse" color-interpolation-filters="sRGB">
<feFlood flood-opacity="0" result="BackgroundImageFix"/>
<feColorMatrix in="SourceAlpha" type="matrix" values="0 0 0 0 0 0 0 0 0 0 0 0 0 0 0 0 0 0 127 0" result="hardAlpha"/>
<feOffset dy="2.47367"/>
<feGaussianBlur stdDeviation="2.47367"/>
<feColorMatrix type="matrix" values="0 0 0 0 0 0 0 0 0 0 0 0 0 0 0 0 0 0 0.161 0"/>
<feBlend mode="normal" in2="BackgroundImageFix" result="effect1_dropShadow_2014_1879"/>
<feBlend mode="normal" in="SourceGraphic" in2="effect1_dropShadow_2014_1879" result="shape"/>
</filter>
<filter id="filter22_d_2014_1879" x="3.32755" y="99.8144" width="33.1364" height="37.5055" filterUnits="userSpaceOnUse" color-interpolation-filters="sRGB">
<feFlood flood-opacity="0" result="BackgroundImageFix"/>
<feColorMatrix in="SourceAlpha" type="matrix" values="0 0 0 0 0 0 0 0 0 0 0 0 0 0 0 0 0 0 127 0" result="hardAlpha"/>
<feOffset dy="2.47367"/>
<feGaussianBlur stdDeviation="2.47367"/>
<feColorMatrix type="matrix" values="0 0 0 0 0 0 0 0 0 0 0 0 0 0 0 0 0 0 0.161 0"/>
<feBlend mode="normal" in2="BackgroundImageFix" result="effect1_dropShadow_2014_1879"/>
<feBlend mode="normal" in="SourceGraphic" in2="effect1_dropShadow_2014_1879" result="shape"/>
</filter>
<filter id="filter23_d_2014_1879" x="32.0307" y="99.8144" width="17.5629" height="37.5055" filterUnits="userSpaceOnUse" color-interpolation-filters="sRGB">
<feFlood flood-opacity="0" result="BackgroundImageFix"/>
<feColorMatrix in="SourceAlpha" type="matrix" values="0 0 0 0 0 0 0 0 0 0 0 0 0 0 0 0 0 0 127 0" result="hardAlpha"/>
<feOffset dy="2.47367"/>
<feGaussianBlur stdDeviation="2.47367"/>
<feColorMatrix type="matrix" values="0 0 0 0 0 0 0 0 0 0 0 0 0 0 0 0 0 0 0.161 0"/>
<feBlend mode="normal" in2="BackgroundImageFix" result="effect1_dropShadow_2014_1879"/>
<feBlend mode="normal" in="SourceGraphic" in2="effect1_dropShadow_2014_1879" result="shape"/>
</filter>
<filter id="filter24_d_2014_1879" x="48.8478" y="99.8144" width="29.4958" height="37.5055" filterUnits="userSpaceOnUse" color-interpolation-filters="sRGB">
<feFlood flood-opacity="0" result="BackgroundImageFix"/>
<feColorMatrix in="SourceAlpha" type="matrix" values="0 0 0 0 0 0 0 0 0 0 0 0 0 0 0 0 0 0 127 0" result="hardAlpha"/>
<feOffset dy="2.47367"/>
<feGaussianBlur stdDeviation="2.47367"/>
<feColorMatrix type="matrix" values="0 0 0 0 0 0 0 0 0 0 0 0 0 0 0 0 0 0 0.161 0"/>
<feBlend mode="normal" in2="BackgroundImageFix" result="effect1_dropShadow_2014_1879"/>
<feBlend mode="normal" in="SourceGraphic" in2="effect1_dropShadow_2014_1879" result="shape"/>
</filter>
<filter id="filter25_d_2014_1879" x="74.8515" y="99.8144" width="36.3993" height="37.5041" filterUnits="userSpaceOnUse" color-interpolation-filters="sRGB">
<feFlood flood-opacity="0" result="BackgroundImageFix"/>
<feColorMatrix in="SourceAlpha" type="matrix" values="0 0 0 0 0 0 0 0 0 0 0 0 0 0 0 0 0 0 127 0" result="hardAlpha"/>
<feOffset dy="2.47367"/>
<feGaussianBlur stdDeviation="2.47367"/>
<feColorMatrix type="matrix" values="0 0 0 0 0 0 0 0 0 0 0 0 0 0 0 0 0 0 0.161 0"/>
<feBlend mode="normal" in2="BackgroundImageFix" result="effect1_dropShadow_2014_1879"/>
<feBlend mode="normal" in="SourceGraphic" in2="effect1_dropShadow_2014_1879" result="shape"/>
</filter>
<filter id="filter26_d_2014_1879" x="105.99" y="99.6152" width="40.686" height="37.7028" filterUnits="userSpaceOnUse" color-interpolation-filters="sRGB">
<feFlood flood-opacity="0" result="BackgroundImageFix"/>
<feColorMatrix in="SourceAlpha" type="matrix" values="0 0 0 0 0 0 0 0 0 0 0 0 0 0 0 0 0 0 127 0" result="hardAlpha"/>
<feOffset dy="2.47367"/>
<feGaussianBlur stdDeviation="2.47367"/>
<feColorMatrix type="matrix" values="0 0 0 0 0 0 0 0 0 0 0 0 0 0 0 0 0 0 0.161 0"/>
<feBlend mode="normal" in2="BackgroundImageFix" result="effect1_dropShadow_2014_1879"/>
<feBlend mode="normal" in="SourceGraphic" in2="effect1_dropShadow_2014_1879" result="shape"/>
</filter>
</defs>
</svg>
